<?xml version="1.0" encoding="UTF-8"?><svg id="a" xmlns="http://www.w3.org/2000/svg" viewBox="0 0 2028 423"><path d="M407.35,139.83l-76.53,176.81h-40.41l-76.28-176.81h44.2l53.8,126.29,54.56-126.29h40.67Z" fill="#084c61" stroke-width="0"/><path d="M416.95,139.83c0-12.38,9.85-21.97,24.5-21.97s24.5,9.09,24.5,21.22c0,13.13-9.85,22.73-24.5,22.73s-24.5-9.6-24.5-21.97ZM421.75,180.75h39.4v135.89h-39.4v-135.89Z" fill="#084c61" stroke-width="0"/><path d="M487.68,248.69c0-40.92,31.57-69.96,75.77-69.96,28.54,0,51.02,12.38,60.87,34.6l-30.56,16.42c-7.33-12.88-18.19-18.69-30.56-18.69-19.95,0-35.61,13.89-35.61,37.63s15.66,37.63,35.61,37.63c12.38,0,23.24-5.56,30.56-18.69l30.56,16.67c-9.85,21.72-32.33,34.35-60.87,34.35-44.2,0-75.77-29.05-75.77-69.96Z" fill="#084c61" stroke-width="0"/><path d="M736.71,310.07c-8.08,5.81-19.95,8.59-32.08,8.59-32.08,0-50.77-16.42-50.77-48.75v-55.82h-20.96v-30.31h20.96v-33.09h39.4v33.09h33.85v30.31h-33.85v55.31c0,11.62,6.31,17.93,16.92,17.93,5.81,0,11.62-1.77,15.91-5.05l10.61,27.78Z" fill="#084c61" stroke-width="0"/><path d="M744.55,248.69c0-40.92,31.57-69.96,74.76-69.96s74.51,29.05,74.51,69.96-31.32,69.96-74.51,69.96-74.76-29.05-74.76-69.96ZM853.91,248.69c0-23.49-14.9-37.63-34.6-37.63s-34.86,14.14-34.86,37.63,15.15,37.63,34.86,37.63,34.6-14.14,34.6-37.63Z" fill="#084c61" stroke-width="0"/><path d="M1004.45,178.73v36.37c-3.28-.25-5.81-.51-8.84-.51-21.72,0-36.12,11.87-36.12,37.89v64.16h-39.4v-135.89h37.63v17.93c9.6-13.13,25.76-19.95,46.73-19.95Z" fill="#084c61" stroke-width="0"/><path d="M1154.2,316.64l-34.1-49.25h-37.63v49.25h-40.92v-176.81h76.53c47.23,0,76.78,24.5,76.78,64.16,0,26.52-13.39,45.97-36.37,55.82l39.65,56.83h-43.95ZM1115.81,173.17h-33.34v61.63h33.34c25,0,37.63-11.62,37.63-30.81s-12.63-30.81-37.63-30.81Z" fill="#2b3133" stroke-width="0"/><path d="M1214.31,248.69c0-40.92,31.57-69.96,74.76-69.96s74.51,29.05,74.51,69.96-31.32,69.96-74.51,69.96-74.76-29.05-74.76-69.96ZM1323.68,248.69c0-23.49-14.9-37.63-34.6-37.63s-34.86,14.14-34.86,37.63,15.15,37.63,34.86,37.63,34.6-14.14,34.6-37.63Z" fill="#2b3133" stroke-width="0"/><path d="M1376.72,304.01l13.13-28.29c12.12,7.83,30.56,13.13,47.23,13.13,18.19,0,25-4.8,25-12.38,0-22.23-82.09.5-82.09-53.8,0-25.76,23.24-43.95,62.89-43.95,18.69,0,39.4,4.29,52.28,11.87l-13.13,28.04c-13.39-7.58-26.77-10.1-39.15-10.1-17.68,0-25.26,5.56-25.26,12.63,0,23.24,82.09.76,82.09,54.3,0,25.26-23.49,43.19-64.16,43.19-22.98,0-46.22-6.31-58.85-14.65Z" fill="#2b3133" stroke-width="0"/><path d="M1510.84,304.01l13.13-28.29c12.12,7.83,30.56,13.13,47.23,13.13,18.19,0,25-4.8,25-12.38,0-22.23-82.09.5-82.09-53.8,0-25.76,23.24-43.95,62.89-43.95,18.69,0,39.4,4.29,52.28,11.87l-13.13,28.04c-13.39-7.58-26.77-10.1-39.15-10.1-17.68,0-25.26,5.56-25.26,12.63,0,23.24,82.09.76,82.09,54.3,0,25.26-23.49,43.19-64.16,43.19-22.98,0-46.22-6.31-58.85-14.65Z" fill="#2b3133" stroke-width="0"/><path d="M1653.29,139.83c0-12.38,9.85-21.97,24.5-21.97s24.5,9.09,24.5,21.22c0,13.13-9.85,22.73-24.5,22.73s-24.5-9.6-24.5-21.97ZM1658.09,180.75h39.4v135.89h-39.4v-135.89Z" fill="#2b3133" stroke-width="0"/><path d="M158.09,170.66l-97.85,53.77,97.85,53.33v55.1L18.22,253.08v-57.3l139.88-79.78v54.66Z" fill="#ffb45e" stroke-width="0"/><path d="M1824.07,7.58h40.85l-96.97,415.2h-40.85L1824.07,7.58Z" fill="#ffb45e" stroke-width="0"/><path d="M2010.08,195.78v57.3l-139.88,79.78v-55.1l97.85-53.33-97.85-53.77v-54.66l139.88,79.78Z" fill="#ffb45e" stroke-width="0"/></svg>