<?xml version="1.0" encoding="UTF-8"?><svg id="a" xmlns="http://www.w3.org/2000/svg" viewBox="0 0 604.05 471"><path d="M424.44,50.25h-245.42c-37.21,0-67.29,30.08-67.29,67.29v235.92c0,37.21,30.08,67.29,67.29,67.29h245.42c37.21,0,67.29-30.08,67.29-67.29V117.54c0-37.21-30.08-67.29-67.29-67.29ZM475.74,347.28c.15,31.68-25.41,57.48-57.09,57.63-.07,0-.15,0-.22,0h-233.38c-31.67,0-57.48-25.81-57.48-57.47V123.56c0-31.67,25.81-57.48,57.48-57.48h233.23c31.74,0,57.48,25.73,57.48,57.48,0,0,0,0,0,0v223.72h0ZM261.99,223.62l44.33,85.18c.79,1.27.32,2.53-.95,2.53h-27.55c-1.74,0-2.53-.48-3.33-2.06-10.13-20.9-20.42-41.8-31.03-64.28h-.32c-9.5,21.22-19.95,43.54-30.08,64.44-.79,1.27-1.58,1.74-2.85,1.74h-26.13c-1.58,0-1.74-1.27-.95-2.22l43.38-82.65-41.96-83.6c-.95-1.27,0-2.22.95-2.22h27.23c1.58,0,2.22.32,2.85,1.74,9.98,20.9,20.11,42.43,29.61,63.49h.32c9.18-20.9,19.32-42.59,29.13-63.33.79-1.27,1.27-2.06,2.85-2.06h25.49c1.27,0,1.74.95.95,2.22l-41.96,81.07h0ZM314.09,249.43c0-36.89,24.54-65.71,63.49-65.71,3.32,0,5.07,0,8.23.32v-41.96c0-.95.79-1.58,1.58-1.58h25.02c1.27,0,1.58.48,1.58,1.27v145.35c0,4.28,0,9.66.79,15.52,0,.95-.32,1.27-1.27,1.74-13.3,6.33-27.23,9.18-40.53,9.18-34.36.16-58.9-21.06-58.9-64.13h0ZM385.81,208.9c-2.22-.95-5.38-1.58-9.18-1.58-19.95,0-33.88,15.36-33.88,40.85,0,29.13,14.25,40.85,32.14,40.85,3.8,0,7.92-.47,10.93-1.74v-78.37Z" fill="#000" stroke-width="0"/></svg>