<?xml version="1.0" encoding="UTF-8"?><svg id="a" xmlns="http://www.w3.org/2000/svg" viewBox="0 0 604.05 471"><path id="b" d="M223.24,471c43.33,0,78.5-35.17,78.5-78.5v-78.5h-78.5c-43.33,0-78.5,35.17-78.5,78.5s35.17,78.5,78.5,78.5Z" fill="#1a1a1a" stroke-width="0"/><path id="c" d="M144.74,235.5c0-43.33,35.17-78.5,78.5-78.5h78.5v157h-78.5c-43.33,0-78.5-35.17-78.5-78.5Z" fill="#1a1a1a" stroke-width="0"/><path id="d" d="M144.74,78.5C144.74,35.17,179.9,0,223.24,0h78.5v157h-78.5c-43.33,0-78.5-35.17-78.5-78.5Z" fill="#0d0d0d" stroke-width="0"/><path id="e" d="M301.74,0h78.5c43.33,0,78.5,35.17,78.5,78.5s-35.17,78.5-78.5,78.5h-78.5V0Z" fill="#1a1a1a" stroke-width="0"/><path id="f" d="M458.74,235.5c0,43.33-35.17,78.5-78.5,78.5s-78.5-35.17-78.5-78.5,35.17-78.5,78.5-78.5,78.5,35.17,78.5,78.5Z" fill="#1a1a1a" stroke-width="0"/></svg>