<?xml version="1.0" encoding="UTF-8"?><svg id="a" xmlns="http://www.w3.org/2000/svg" viewBox="0 0 604.05 471"><path d="M518.2,215.44L321.72,18.98c-5.25-5.24-12.5-8.48-20.51-8.48s-15.26,3.24-20.51,8.48h0l-40.71,40.78,51.75,51.75c3.3-1.16,7.1-1.82,11.06-1.82,19.04,0,34.46,15.42,34.46,34.46,0,4.04-.69,7.89-1.97,11.49l.08-.24,49.84,49.87c3.33-1.19,7.19-1.88,11.19-1.88,19.03,0,34.45,15.42,34.45,34.45s-15.42,34.45-34.45,34.45-34.45-15.42-34.45-34.45c0-4.7.95-9.17,2.64-13.25l-.09.23-46.66-46.42v122.34c11.46,5.78,19.19,17.45,19.19,30.92,0,19.06-15.45,34.51-34.51,34.51s-34.51-15.45-34.51-34.51c0-9.51,3.84-18.11,10.07-24.35h0c3.17-3.17,6.93-5.73,11.12-7.53l.23-.09v-123.54c-12.63-5.31-21.34-17.6-21.34-31.9,0-4.8.98-9.36,2.75-13.52l-.09.23-50.85-51.09L85.17,214.52c-5.22,5.27-8.43,12.51-8.43,20.53s3.23,15.26,8.45,20.53l196.49,196.43c5.24,5.25,12.48,8.49,20.5,8.49s15.24-3.24,20.5-8.49l195.56-195.56c5.25-5.24,8.51-12.5,8.51-20.5s-3.26-15.26-8.51-20.5h0l-.03-.02Z" fill="#000" stroke-width="0"/></svg>