<?xml version="1.0" encoding="UTF-8"?><svg id="a" xmlns="http://www.w3.org/2000/svg" viewBox="0 0 604.05 471"><g id="b"><g id="c"><g id="d"><path id="e" d="M302.18,33.35c110.04,0,199.24,91.45,199.24,204.28,0,90.24-57.02,166.78-136.14,193.82-10.1,2.01-13.69-4.36-13.69-9.81,0-6.73.24-28.73.24-56.07,0-19.04-6.38-31.47-13.53-37.81,44.37-5.06,90.99-22.34,90.99-100.8,0-22.31-7.73-40.52-20.52-54.83,2.07-5.16,8.91-25.94-1.95-54.07,0,0-16.7-5.48-54.73,20.95-15.92-4.52-32.97-6.8-49.91-6.88-16.94.08-33.97,2.35-49.87,6.88-38.07-26.42-54.81-20.95-54.81-20.95-10.82,28.13-3.98,48.91-1.93,54.07-12.73,14.31-20.52,32.52-20.52,54.83,0,78.27,46.52,95.8,90.77,100.96-5.7,5.1-10.86,14.11-12.65,27.31-11.36,5.22-40.21,14.25-57.98-16.97,0,0-10.54-19.63-30.54-21.06,0,0-19.43-.26-1.35,12.41,0,0,13.05,6.27,22.12,29.89,0,0,11.7,36.46,67.12,24.11.1,17.07.28,33.17.28,38.03,0,5.4-3.67,11.72-13.61,9.83-79.18-27-136.26-103.58-136.26-193.84,0-112.83,89.22-204.28,199.24-204.28" fill="#000" fill-rule="evenodd" stroke-width="0"/></g></g></g></svg>