<?xml version="1.0" encoding="UTF-8"?><svg id="a" xmlns="http://www.w3.org/2000/svg" viewBox="0 0 604.05 471"><g id="b"><path d="M281.5,208.42l13.67,42.8h-44.61l13.41-42.8c3.1-10.31,5.67-22.43,8.25-32.49h.52c2.58,10.06,5.41,21.92,8.77,32.49ZM483.74,114.17v242.67c0,33.37-27.3,60.67-60.67,60.67h-242.67c-33.37,0-60.67-27.3-60.67-60.67V114.17c0-33.37,27.3-60.67,60.67-60.67h242.67c33.37,0,60.67,27.3,60.67,60.67ZM350.35,324.46l-56.47-173.79h-40.48l-55.7,173.79h32.75l14.96-49.25h55.18l15.73,49.25h34.04ZM403.97,198.88h-31.98v125.58h31.98v-125.58ZM405.77,163.82c-.26-9.8-6.96-17.28-17.79-17.28s-17.79,7.48-17.79,17.28,6.96,17.02,17.53,17.02c11.09,0,18.05-7.48,18.05-17.02Z" fill="#000" stroke-width="0"/></g></svg>