<?xml version="1.0" encoding="UTF-8"?><svg id="a" xmlns="http://www.w3.org/2000/svg" viewBox="0 0 604.05 471"><path d="M123.5,57.26h356.48v356.48H123.5V57.26ZM450.77,328.72c-2.6-16.26-13.19-29.93-44.6-42.67-10.93-5.12-23.08-8.69-26.69-16.93-1.35-4.9-1.56-7.58-.68-10.47,2.23-9.6,13.59-12.48,22.5-9.8,5.79,1.78,11.14,6.24,14.5,13.37q15.36-10.04,26.07-16.71c-4.01-6.24-6-8.93-8.7-11.59-9.36-10.47-21.82-15.82-42.09-15.36l-10.47,1.32c-10.04,2.45-19.61,7.8-25.4,14.93-16.93,19.18-12.05,52.6,8.45,66.41,20.27,15.15,49.92,18.48,53.71,32.75,3.56,17.38-12.92,22.95-29.2,20.94-12.05-2.67-18.72-8.7-26.07-19.84l-27.18,15.61c3.12,7.13,6.68,10.23,12.03,16.47,25.84,26.08,90.46,24.75,102.06-14.91.43-1.34,3.56-10.47,1.1-24.51l.68,1h0ZM317.35,221.11h-33.39c0,28.79-.13,57.39-.13,86.22,0,18.3.94,35.1-2.05,40.27-4.9,10.23-17.53,8.93-23.26,7.13-5.88-2.91-8.87-6.92-12.33-12.7-.94-1.56-1.63-2.91-1.89-2.91l-27.11,16.71c4.53,9.36,11.14,17.41,19.67,22.53,12.7,7.58,29.77,10.03,47.63,6.02,11.63-3.36,21.66-10.26,26.9-20.96,7.58-13.81,5.97-30.75,5.9-49.7.18-30.51,0-61.03,0-91.78l.06-.83h0Z" fill="#000" stroke-width="0"/></svg>