<?xml version="1.0" encoding="UTF-8"?><svg id="a" xmlns="http://www.w3.org/2000/svg" viewBox="0 0 604.05 471"><path d="M105.32,120.56c-39.86,57.27-34.89,131.78-4.44,192.65.72,1.45,1.45,2.89,2.22,4.34.47.9.92,1.84,1.45,2.73.27.54.6,1.07.89,1.57.52.98,1.05,1.9,1.59,2.89.96,1.66,1.93,3.32,2.89,4.97.54.9,1.08,1.82,1.66,2.73,1.1,1.77,2.22,3.53,3.36,5.28.47.76.94,1.45,1.45,2.2,1.59,2.37,3.22,4.73,4.88,7.05l.14.18c.25.38.56.74.83,1.12,1.45,1.99,2.89,3.97,4.44,5.93l1.68,2.13c1.35,1.7,2.72,3.38,4.12,5.06l1.57,1.88c1.86,2.2,3.78,4.34,5.78,6.54l.11.11.22.23c1.92,2.08,3.87,4.12,5.78,6.14l1.86,1.88c1.54,1.54,3.07,3.05,4.66,4.55.63.61,1.26,1.23,1.92,1.81,2.1,1.99,4.23,3.92,6.38,5.78.04.04.05.07.11.09.36.33.76.63,1.12.94,1.93,1.65,3.85,3.28,5.78,4.9l2.4,1.92c1.59,1.28,3.2,2.54,4.82,3.78l2.58,1.97c1.79,1.32,3.6,2.62,5.42,3.87.67.47,1.3.94,1.99,1.45l.54.4c1.73,1.19,3.51,2.35,5.26,3.49.76.51,1.45,1.03,2.28,1.45,2.71,1.7,5.46,3.41,8.24,5.04l2.28,1.28c2.04,1.19,4.08,2.35,6.18,3.47,1.12.61,2.28,1.19,3.41,1.77,1.45.78,2.89,1.55,4.43,2.29l1.03.49,1.81.89c2.31,1.11,4.65,2.19,7.01,3.25l1.45.67c2.7,1.18,5.43,2.32,8.18,3.41l1.99.78c2.55.98,5.13,1.95,7.71,2.89l.98.33c2.89.99,5.78,1.92,8.67,2.82l2.08.61c2.31.83,5.28,1.7,8.33,2.38l.56.11c192.72,35.14,248.71-115.81,248.71-115.81-47.01,61.25-130.48,77.42-209.58,59.42-3-.69-5.89-1.61-8.83-2.48l-2.2-.67c-2.89-.88-5.72-1.8-8.49-2.76l-1.17-.42c-2.51-.89-5.02-1.82-7.48-2.78l-2.1-.83c-2.71-1.07-5.42-2.2-8.09-3.36l-1.63-.72c-2.29-1.05-4.57-2.08-6.83-3.16l-1.97-.96c-1.77-.87-3.52-1.77-5.28-2.69-1.17-.61-2.37-1.19-3.52-1.84-2.13-1.14-4.23-2.35-6.32-3.56l-2.13-1.19c-2.78-1.63-5.53-3.34-8.24-5.04-.76-.47-1.45-.98-2.22-1.45-1.97-1.26-3.94-2.57-5.87-3.9-.63-.42-1.26-.9-1.9-1.34-1.87-1.31-3.72-2.65-5.55-4.01-.83-.61-1.64-1.25-2.46-1.86-1.68-1.28-3.36-2.57-5-3.92l-2.22-1.79c-2.1-1.73-4.17-3.45-6.23-5.24l-.69-.58c-2.2-1.95-4.34-3.94-6.54-5.96l-1.84-1.77c-1.6-1.52-3.17-3.05-4.7-4.61l-1.84-1.84c-1.93-2.01-3.85-4.05-5.78-6.11l-.29-.31c-1.99-2.19-3.94-4.41-5.85-6.67l-1.5-1.84c-1.45-1.72-2.89-3.45-4.21-5.2-.52-.61-1.05-1.26-1.55-1.92-1.66-2.15-3.29-4.34-4.88-6.47-43.9-59.87-59.68-142.48-24.57-210.3l-31.2,39.48Z" fill="#000" stroke-width="0"/><path d="M229.03,72.29c-13.62,21.07-21.72,46.83-21.72,74.45,0,24.34,6.27,47.21,17.31,67.1l-.36-.7c4.25,8.26,8.47,15.23,13.13,21.86l-.4-.58c4.41,6.99,9.3,13.06,14.82,18.5l.02.02c2.08,2.28,4.25,4.52,6.47,6.7.56.58,1.12,1.12,1.7,1.7,2.15,2.08,4.34,4.14,6.61,6.12.09.07.18.18.27.23,2.49,2.2,5.09,4.34,7.71,6.38l1.75,1.37c2.64,2.02,5.31,4.01,8.06,5.89l.23.18c1.21.83,2.46,1.63,3.69,2.42.6.4,1.16.79,1.75,1.16,1.97,1.26,3.96,2.49,5.98,3.67l.83.49c1.75,1.01,3.51,1.99,5.29,2.89.61.34,1.25.65,1.88.98,1.23.63,2.46,1.28,3.7,1.92l.54.25c2.55,1.26,5.09,2.46,7.71,3.6.56.25,1.12.47,1.7.7,2.08.89,4.21,1.75,6.32,2.57l2.71.99c1.92.7,3.87,1.37,5.78,2.02l2.64.83c2.28.87,5.08,1.7,7.97,2.35l.43.07c148.8,24.66,183.16-89.92,183.16-89.92-30.97,44.59-90.95,65.87-154.93,49.27-2.89-.76-5.64-1.55-8.42-2.44-.85-.25-1.7-.54-2.53-.83-1.99-.63-3.94-1.34-5.89-2.04l-2.66-.98c-2.13-.83-4.25-1.68-6.34-2.57-.58-.25-1.16-.47-1.7-.72-2.64-1.14-5.22-2.35-7.77-3.6-1.32-.65-2.6-1.34-3.88-1.99l-2.24-1.16c-1.66-.9-3.31-1.83-4.93-2.78-.38-.22-.78-.43-1.17-.67-2.01-1.18-4-2.4-5.96-3.65-.61-.4-1.19-.81-1.79-1.19-1.3-.83-2.58-1.7-3.87-2.57-2.75-1.9-5.4-3.87-8.04-5.89l-1.81-1.45c-27.99-21.88-49.11-51.36-60.34-85.33l-.36-1.26c-4.26-12.54-6.74-26.99-6.74-42.01,0-24.17,6.38-46.87,17.56-66.47l-.34.67-23.56,33.42Z" fill="#000" stroke-width="0"/><path d="M333.07,36.22c-9.11,13.5-14.53,30.14-14.53,48.04,0,12.92,2.82,25.17,7.88,36.17l-.22-.54c13.19,29.4,37.2,51.96,66.83,62.95l.81.27c1.23.47,2.44.87,3.7,1.28l1.63.51c1.41.52,3.18,1.05,4.99,1.46l.31.05c82.15,15.9,104.45-42.17,110.39-50.7-19.53,28.11-52.32,34.85-92.58,25.1-3.18-.78-6.68-1.92-9.74-3.02-4.73-1.68-8.56-3.31-12.27-5.11l.7.31c-7.73-3.78-14.36-7.88-20.52-12.59l.29.22c-36.03-27.34-58.39-79.5-34.89-121.93l-12.79,17.54Z" fill="#000" stroke-width="0"/></svg>