<?xml version="1.0" encoding="UTF-8"?><svg id="a" xmlns="http://www.w3.org/2000/svg" viewBox="0 0 604.05 471"><path d="M289.13,33.46c-.86.08-3.58.35-6.04.55-56.6,5.1-109.61,35.64-143.19,82.57-18.7,26.09-30.66,55.69-35.17,87.04-1.6,10.94-1.79,14.18-1.79,29.01s.19,18.07,1.79,29.01c10.83,74.82,64.08,137.67,136.29,160.96,12.93,4.17,26.57,7.01,42.07,8.72,6.04.66,32.14.66,38.17,0,26.76-2.96,49.43-9.58,71.79-20.99,3.43-1.75,4.09-2.22,3.62-2.61-.31-.23-14.92-19.82-32.45-43.5l-31.86-43.04-39.93-59.08c-21.97-32.48-40.04-59.04-40.2-59.04-.16-.04-.31,26.21-.39,58.26-.12,56.12-.16,58.38-.86,59.7-1.01,1.91-1.79,2.69-3.43,3.54-1.25.62-2.34.74-8.22.74h-6.74l-1.79-1.13c-1.17-.74-2.03-1.71-2.61-2.84l-.82-1.75.08-78.09.12-78.13,1.21-1.52c.62-.82,1.95-1.87,2.88-2.38,1.6-.78,2.22-.86,8.96-.86,7.95,0,9.27.31,11.34,2.57.58.62,22.2,33.18,48.07,72.4,25.86,39.22,61.23,92.77,78.6,119.06l31.55,47.79,1.6-1.05c14.14-9.19,29.1-22.28,40.94-35.91,25.2-28.94,41.44-64.22,46.9-101.84,1.6-10.94,1.79-14.18,1.79-29.01s-.19-18.07-1.79-29.01c-10.83-74.82-64.08-137.67-136.29-160.96-12.74-4.13-26.29-6.97-41.48-8.68-3.74-.39-29.49-.82-32.72-.51h0ZM370.7,153.96c1.87.93,3.39,2.73,3.93,4.6.31,1.01.39,22.67.31,71.47l-.12,70.03-12.35-18.93-12.39-18.93v-50.9c0-32.91.16-51.41.39-52.3.62-2.18,1.99-3.89,3.86-4.91,1.6-.82,2.18-.9,8.3-.9,5.76,0,6.78.08,8.06.78Z" fill="#000" stroke-width="0"/></svg>