<?xml version="1.0" encoding="UTF-8"?><svg id="a" xmlns="http://www.w3.org/2000/svg" viewBox="0 0 604.05 471"><g id="b"><path d="M420.4,57.5h-237.33c-32.63,0-59.33,26.7-59.33,59.33v237.33c0,32.63,26.7,59.33,59.33,59.33h237.33c32.63,0,59.33-26.7,59.33-59.33V116.83c0-32.63-26.7-59.33-59.33-59.33ZM294.3,238.65c-12.36,12.36-31.78,18.16-53.72,18.16-5.8,0-11.1-.25-15.13-1.01v64.06h-30.76v-167.7c11.1-2.02,26.48-3.53,47.41-3.53,22.7,0,39.34,4.79,50.19,13.87,10.09,8.32,16.64,21.69,16.64,37.58,0,16.14-5.04,29.5-14.63,38.58ZM358.85,322.38c-14.88,0-28.24-3.53-37.32-8.58l6.05-22.44c7.06,4.29,20.43,8.83,31.52,8.83,13.62,0,19.67-5.55,19.67-13.62s-5.04-12.61-20.18-17.9c-23.96-8.32-34.04-21.44-33.79-35.81,0-21.69,17.9-38.58,46.4-38.58,13.62,0,25.47,3.53,32.53,7.31l-6.05,21.94c-5.3-3.02-15.13-7.06-25.98-7.06s-17.15,5.3-17.15,12.86,5.8,11.6,21.44,17.15c22.19,8.07,32.53,19.42,32.78,37.58,0,22.19-17.4,38.33-49.93,38.33ZM277.91,201.33c0,19.92-14.12,31.27-37.32,31.27-6.3,0-11.35-.25-15.13-1.26v-57.5c3.28-.76,9.33-1.51,17.91-1.51,21.44,0,34.55,10.09,34.55,29Z" fill="#000" stroke-width="0"/></g></svg>