<?xml version="1.0" encoding="UTF-8"?><svg id="a" xmlns="http://www.w3.org/2000/svg" viewBox="0 0 604.05 471"><path d="M302.18,186.96c-25.16,0-45.64,20.49-45.64,45.64s20.49,45.64,45.64,45.64,45.64-20.49,45.64-45.64-20.49-45.64-45.64-45.64ZM174.41,323.31l-10.07-2.49c-74.97-19-118.02-51.14-118.02-88.29s43.07-69.29,118.02-88.29l10.07-2.49,2.83,9.99c7.58,26.15,17.32,51.64,29.07,76.3l2.16,4.49-2.16,4.57c-11.74,24.56-21.49,50.05-29.07,76.3l-2.83,9.91ZM159.68,167.55c-56.98,15.99-91.95,40.56-91.95,64.97s34.99,48.89,91.95,64.97c7-22.24,15.42-43.9,25.23-64.97-9.83-21.08-18.25-42.73-25.23-64.97h0ZM429.96,323.31l-2.83-9.99c-7.58-26.15-17.32-51.64-29.07-76.22l-2.16-4.57,2.16-4.57c11.74-24.56,21.49-50.05,29.07-76.3l2.83-9.91,10.07,2.49c74.97,19,118.02,51.14,118.02,88.29s-43.07,69.29-118.02,88.29l-10.07,2.49ZM419.45,232.52c10.25,22.15,18.74,43.9,25.23,64.97,57.06-16.07,91.95-40.56,91.95-64.97s-34.99-48.89-91.95-64.97c-7,22.15-15.42,43.9-25.23,64.97h0ZM159.5,167.47l-2.83-9.99c-21.08-74.3-14.66-127.6,17.57-146.18,31.65-18.25,82.37,3.33,135.59,57.97l7.24,7.42-7.24,7.42c-18.9,19.65-36.14,40.81-51.64,63.3l-2.91,4.08-5.01.42c-27.23,2.16-54.23,6.49-80.71,13l-10.07,2.57ZM199.98,26.13c-5.74,0-10.83,1.17-15.08,3.66-21.16,12.25-24.9,54.72-10.33,112.02,22.74-5.09,45.72-8.67,68.97-10.75,13.32-19,27.99-37.15,43.72-54.23-33.23-32.4-64.72-50.73-87.28-50.73v.02ZM404.47,460.23q-.08,0,0,0c-30.4,0-69.47-22.82-109.94-64.46l-7.24-7.42,7.24-7.42c18.9-19.65,36.14-40.81,51.64-63.3l2.83-4.08,5.01-.5c27.23-2.08,54.23-6.41,80.79-13l10.07-2.49,2.83,9.99c21.08,74.3,14.66,127.52-17.57,146.08-7.84,4.49-16.66,6.75-25.65,6.57v.02ZM317.09,388.19c33.23,32.4,64.72,50.73,87.28,50.73h.08c5.66,0,10.75-1.25,15-3.66,21.16-12.25,25-54.72,10.33-112.02-22.74,5.09-45.82,8.67-68.97,10.67-13.32,19.08-27.99,37.15-43.72,54.31v-.02ZM444.86,167.47l-10.07-2.57c-26.56-6.49-53.56-10.83-80.79-13l-5.01-.42-2.83-4.08c-15.5-22.48-32.74-43.64-51.64-63.3l-7.24-7.42,7.24-7.42C347.74,14.62,398.47-6.95,430.12,11.29c32.24,18.57,38.65,71.88,17.57,146.18l-2.83,9.99ZM360.82,131.07c24.32,2.25,47.48,5.84,68.97,10.75,14.66-57.3,10.83-99.79-10.33-112.02-21.08-12.15-60.72,6.49-102.36,47.06,15.74,17.16,30.32,35.23,43.72,54.23v-.02ZM199.98,460.23c-9,.16-17.91-2.08-25.73-6.57-32.24-18.57-38.65-71.8-17.57-146.08l2.83-9.99,10.07,2.49c24.66,6.25,51.81,10.57,80.71,13l5.01.5,2.83,4.08c15.5,22.48,32.74,43.64,51.64,63.3l7.24,7.42-7.24,7.42c-40.4,41.64-79.46,64.46-109.78,64.46v-.02ZM174.58,323.23c-14.66,57.3-10.83,99.79,10.33,112.02,21.08,11.99,60.64-6.49,102.36-47.06-15.74-17.16-30.4-35.23-43.72-54.31-23.24-2-46.23-5.58-68.97-10.67v.02ZM302.18,336.63c-17.57,0-35.57-.75-53.64-2.25l-5.01-.42-2.91-4.16c-10.15-14.66-19.83-29.73-28.74-45.22-9-15.5-17.24-31.31-24.9-47.48l-2.16-4.57,2.16-4.57c7.66-16.15,15.91-31.98,24.9-47.48,8.83-15.24,18.49-30.48,28.74-45.22l2.91-4.16,5.01-.42c35.73-3.01,71.63-3.01,107.27,0l5.01.42,2.91,4.16c20.41,29.31,38.4,60.38,53.64,92.7l2.16,4.57-2.16,4.57c-15.24,32.32-33.15,63.39-53.64,92.7l-2.91,4.16-5.01.42c-17.99,1.5-36.06,2.25-53.64,2.25ZM255.37,313.47c31.49,2.41,62.13,2.41,93.7,0,17.57-25.73,33.23-52.8,46.81-80.97-13.5-28.15-29.15-55.22-46.89-80.97-31.15-2.41-62.46-2.41-93.62,0-17.73,25.73-33.41,52.8-46.89,80.97,13.58,28.15,29.23,55.22,46.89,80.97Z" fill="#000" stroke-width="0"/></svg>