<?xml version="1.0" encoding="UTF-8"?><svg id="a" xmlns="http://www.w3.org/2000/svg" viewBox="0 0 604.05 471"><path d="M392.77,323.67c16.6-1.65,29.47-15.56,29.47-32.46,0-.67-.02-1.34-.06-2.01v.09c-.87-17.9-15.5-32.09-33.48-32.27h-1.21c-18,.67-32.33,15.41-32.33,33.5,0,.41,0,.82.02,1.25v-.06c.48,8.79,4.09,16.68,9.7,22.62l-.02-.02c-22.07,41.16-55.79,73.62-96.74,93.53l-1.28.56c-22.16,12.27-48.59,19.48-76.72,19.48-7.12,0-14.15-.46-21.01-1.36l.82.09c-25.3-2.44-47.09-15.69-60.92-35.02l-.17-.26c-9.98-14.04-15.95-31.51-15.95-50.4,0-15.56,4.05-30.17,11.17-42.85l-.22.45c10.17-19.26,24.04-35.28,40.79-47.63l.39-.26c-3.18-8.42-6.02-18.57-8.03-29l-.2-1.23c-87.06,62.26-78.23,147.42-51.79,187.67,23.11,29.48,58.73,48.26,98.73,48.26,1.82,0,3.63-.04,5.43-.11h-.26c.65.02,1.43.02,2.21.02,12.03,0,23.72-1.39,34.95-4.02l-1.04.2c74.51-13.65,135.52-61.66,166.83-126.67l.59-1.38.33-.72Z" fill="#000" stroke-width="0"/><path d="M497.62,250.32c-44.67-50.94-109.87-82.91-182.55-82.91-2.21,0-4.44.04-6.64.09h.33-10c-5.26-10.54-15.99-17.66-28.37-17.66-.37,0-.73,0-1.1.02h.06-.73c-17.96.26-32.42,14.87-32.42,32.87,0,.54.02,1.06.04,1.58v-.07c.84,17.9,15.47,32.12,33.46,32.31h1.47c13.27-.52,24.48-8.77,29.32-20.34l.07-.22h10.88c47.48.06,91.54,14.63,127.97,39.56l-.78-.5c28.46,18.22,50.43,44.39,63.06,75.38l.39,1.08c4.83,10.08,7.64,21.9,7.64,34.37,0,13.2-3.14,25.65-8.74,36.66l.2-.46c-14.44,29.48-44.23,49.41-78.65,49.41-1.26,0-2.51-.02-3.76-.07h.19c-21.14-.45-41.08-5.09-59.17-13.14l.97.39c-7.05,5.87-18.79,15.54-27.33,21.43,22.57,11.08,49.04,17.83,77.02,18.48h.22c1.1.04,2.38.06,3.66.06,47.44,0,88.99-25.19,112.02-62.91l.33-.58c6.36-15.08,10.04-32.59,10.04-50.97,0-36.81-14.8-70.16-38.76-94.42l.02.02-.28.59-.09-.04Z" fill="#000" stroke-width="0"/><path d="M193.94,334.29c.82,17.92,15.49,32.18,33.52,32.31h1.19c18-.61,32.37-15.37,32.37-33.46s-14.85-33.35-33.24-33.48h-1.25c-.19-.02-.41-.02-.61-.02-1.36,0-2.66.2-3.89.61l.09-.02c-19.89-32.37-31.66-71.57-31.66-113.53,0-6.77.3-13.46.91-20.06l-.06.86c1.69-35.43,14.7-67.54,35.45-93.08l-.22.3c18.42-19.91,44.37-32.59,73.32-33.52h.17c63.43-1.19,89.88,77.86,91.93,109.27l29.41,8.79c-6.84-96.31-66.74-146.88-124.01-146.88-58.22,3.03-106.54,42.2-123.1,95.39l-.26.97c-8.14,23.46-12.86,50.49-12.86,78.62,0,48.11,13.78,93.01,37.57,130.95l-.59-1.02c-2.66,4.02-4.24,8.94-4.24,14.24,0,.99.06,1.95.17,2.9l-.02-.11-.07-.02Z" fill="#000" stroke-width="0"/></svg>