<?xml version="1.0" encoding="UTF-8"?><svg id="a" xmlns="http://www.w3.org/2000/svg" viewBox="0 0 604.05 471"><path d="M493.02,264.85c.65-.02,1.41-.03,2.19-.03,13.81,0,26.88,3.21,38.47,8.94l-.51-.23c10.57,5.15,19.25,12.77,25.52,22.11l.15.23c4.95,7.22,7.9,16.15,7.9,25.75,0,.7-.02,1.39-.05,2.07v-.1c-.51,9.59-4.87,18.05-11.56,23.98l-.03.03c-3.66,3.59-8.08,6.41-13,8.2l-.25.08c-2.76.55-4.28.14-4.55-1.24s.97-2.9,3.73-4.55c7.49-4.54,12.9-11.86,14.87-20.49l.05-.22c.05-.7.08-1.51.08-2.34,0-5.15-1.23-10.02-3.4-14.33l.08.18c-3.59-7.5-8.96-13.66-15.57-18.12l-.17-.1c-9.89-6.36-21.75-10.53-34.5-11.58l-.27-.02c-4.34-.65-9.34-1.01-14.44-1.01-13.27,0-25.94,2.5-37.6,7.06l.7-.25c2.4,5.61,3.91,12.12,4.12,18.95v.08c-.27,13.99-7.78,26.17-18.96,32.96l-.18.1c-5.13,3.64-11,6.84-17.24,9.32l-.58.2c-3.79,1.85-8.25,2.93-12.95,2.93-.55,0-1.08-.02-1.61-.05h.08c-10.48-2.2-12.96-11.31-7.45-27.33,2.4-6.97,5.76-13.02,10.02-18.33l-.1.12c5.45-7.12,11.43-13.37,18.04-18.9l.18-.15-1.62-2.42c-3.03-5.17-5.81-11.18-8.05-17.46l-.23-.76c-1.66-5.52-3.04-10.76-4.14-15.72l-.83-5.8-8.28,15.72c-7.18,13.25-14.08,24.84-20.7,34.76l-2.48,4.14c2.78,6.76,4.84,14.59,5.76,22.77l.03.41c.07.78.1,1.71.1,2.63,0,12.55-6.19,23.65-15.7,30.42l-.12.08c-4.54,2.8-9.95,5.7-15.57,8.28l-.99.41c-5.85,2.53-12.62,4.19-19.73,4.55h-.15c-.55.03-1.19.07-1.84.07-4.14,0-8.07-.94-11.58-2.62l.17.07c-2.1-1.81-3.43-4.46-3.43-7.42,0-1.51.35-2.95.96-4.22l-.03.07c6.62-9.29,13.15-17.37,20.09-25.09l-.22.25,18.22-23.17-3.3-7.45c-2.65-4.87-5.18-10.62-7.22-16.58l-.23-.79c-1.66-5.52-3.04-10.76-4.14-15.72l-.83-5.8-8.28,19.87c-6.61,15.45-12.69,28.69-18.22,39.73-8.25,16.56-15.15,29.26-20.7,38.09l-1.66,2.48c-6.61,10.48-12.96,15.72-19.05,15.72s-10.21-3.86-12.37-11.59c-1.59-5.7-2.52-12.24-2.52-19,0-.6,0-1.19.02-1.79v.08l1.66-11.59v.83c-4.42,10.48-8.83,20.13-13.25,28.97-2.93,5.73-5.95,10.62-9.32,15.22l.22-.31c-3.41,3.58-8.21,5.8-13.53,5.8h-.13c-.35.03-.75.03-1.14.03-4.19,0-8-1.59-10.88-4.19l.02.02c-5.78-5.93-10.07-13.33-12.29-21.6l-.08-.35c-2.72-7.54-4.27-16.25-4.27-25.32,0-1.18.03-2.34.08-3.48v.17c1.31-13.18,3.94-25.26,7.8-36.77l-.35,1.18-29.8,17.39v.83c4.32,8.98,6.86,19.51,6.86,30.64,0,2.04-.08,4.06-.25,6.05l.02-.27c-.88,17.06-6.33,32.68-15.12,45.88l.22-.33c-9.23,14.64-22.52,25.95-38.32,32.49l-.55.2c-8.89,3.99-19.29,6.33-30.23,6.33-6.92,0-13.65-.93-20.01-2.68l.53.12c-5.27-1.77-9.57-5.28-12.31-9.82l-.05-.1c-3.86-5.6-6.29-12.44-6.67-19.81v-.1c-.18-1.67-.28-3.61-.28-5.58,0-8.5,1.94-16.55,5.4-23.72l-.15.33c9.51-16.21,22.66-29.35,38.36-38.59l.5-.27c11.11-7.7,23.88-15.17,37.21-21.68l1.76-.78,4.14-2.48c-4.97-3.86-14.08-10.49-27.33-19.87-17.7-11.86-33.09-23.83-47.6-36.78l.41.36c-14.03-12.07-24.25-28.21-28.83-46.57l-.13-.63c-.43-2.55-.68-5.48-.68-8.46,0-9.34,2.4-18.12,6.61-25.75l-.13.28c9.27-19.94,22.13-36.75,37.89-50.27l.2-.17c17.06-16.11,36.37-30.14,57.34-41.5l1.44-.71c18.73-10.81,40.61-20.87,63.42-28.93l2.82-.86c21.18-7.75,45.64-12.29,71.15-12.37h.03c1.16-.03,2.53-.07,3.91-.07,20.55,0,40,4.75,57.29,13.22l-.76-.35c14.91,6.79,26.07,19.58,30.54,35.21l.1.4c1.37,5.33,2.15,11.46,2.15,17.77,0,10.47-2.17,20.44-6.06,29.48l.18-.48c-7.09,17.17-17.17,31.8-29.76,43.84l-.05.05c-12.75,12.64-28.04,22.74-45.02,29.48l-.91.31c-17.79,7.64-38.44,12.44-60.12,13.23l-.31.02c-3.18.36-6.86.56-10.58.56-9.8,0-19.26-1.41-28.21-4.04l.71.18c-8-2.55-14.91-6.51-20.77-11.64l.07.05c-4.11-3.35-7.45-7.47-9.84-12.16l-.1-.22c-1.66-4.42-1.79-7.04-.41-7.87s2.35-.97,2.9-.41l4.14,4.14c4.62,4.29,10.14,7.67,16.23,9.82l.33.1c8.38,2.91,18.05,4.6,28.11,4.6,3.23,0,6.41-.17,9.54-.51l-.38.03c26.8-3.16,50.96-12.31,71.81-26.05l-.61.38c17.62-10.48,31.88-24.89,41.92-42.07l.3-.56c4.99-7.32,7.97-16.36,7.97-26.1,0-5.98-1.13-11.71-3.18-16.98l.12.31c-6.19-9.79-16.21-16.68-27.91-18.58l-.23-.03c-9.08-2.24-19.51-3.53-30.23-3.53-8.63,0-17.08.83-25.24,2.42l.83-.13c-27.94,5.03-52.92,13.66-75.95,25.52l1.51-.71c-67.88,34.23-102.93,69.28-105.15,105.15v.81c0,14.46,5.68,27.59,14.94,37.3l-.02-.02c10.55,11.73,22.21,22.08,34.95,31.02l.65.43c11.61,8.68,21.88,17.64,31.43,27.31l.02.03,1.66,1.66,53-28.97c6.05-8.74,13.32-16.13,21.66-22.09l.26-.18c6.62-5.56,15.04-9.19,24.26-9.92l.15-.02c.33-.03.71-.03,1.11-.03,6.18,0,11.48,3.73,13.76,9.06l.03.1c1.74,3.89,2.75,8.45,2.75,13.23,0,1.46-.1,2.9-.28,4.32l.02-.17-1.61,8.17,2.48-1.66c1.72-1.31,3.89-2.09,6.24-2.09,1.49,0,2.9.31,4.17.88l-.07-.03c3.18.83,5.48,3.68,5.48,7.06,0,.58-.07,1.14-.2,1.69l.02-.05-2.48,9.11c-4.97,19.86-8.28,34.21-9.92,43.04-.83,2.87-1.29,6.16-1.29,9.57,0,.71.02,1.41.07,2.1v-.1c.28,3.31.69,4.97,1.24,4.97s1.65-1.66,3.3-4.97l2.48-5.8c.55,0,.55.28,0,.83l9.11-19.05c21.53-47.46,33.12-73.95,34.76-79.5l4.97-15.72c.55-1.1,2.76-2.2,6.62-3.3,3.93-1.06,8.41-1.67,13.05-1.67.38,0,.76,0,1.13.02h-.05c7.73,0,11.59,1.93,11.59,5.8l-.83,4.14c-1.85,5.1-3.69,11.48-5.12,18l-.18,1.04c-.33,2.14-.53,4.59-.53,7.11,0,3.35.33,6.61.98,9.77l-.05-.31.83,3.3c1.69,6.91,4.26,12.97,7.62,18.5l-.17-.28c6.61-11.03,12.96-22.34,19.05-33.94,4.8-8,9.27-17.27,12.87-26.98l.38-1.16c1.24-6.24,2.67-11.51,4.41-16.64l-.27.93c.55-1.66,2.91-2.9,7.07-3.73,3.94-.79,8.46-1.24,13.08-1.24h.6-.03c7.73,0,11.85,1.93,12.37,5.8l-1.66,3.3c-1.97,5.56-3.69,12.26-4.85,19.13l-.1.75c-.15,1.61-.25,3.46-.25,5.35,0,3.96.4,7.83,1.14,11.58l-.07-.38v3.3c1.9,7.22,4.74,13.56,8.45,19.31l-.17-.26,2.48,5.8c13.83-6.79,30.09-10.77,47.28-10.77h.65-.03l-.02.05ZM137.95,384.98c11.51-11.89,18.62-28.12,18.62-46.01,0-6.91-1.06-13.56-3.01-19.82l.13.46-13.25,8.28c-13.51,7.7-25.21,16.3-35.79,26.07l.13-.12c-8.03,7.39-13.96,16.94-16.88,27.72l-.1.41c-2.48,10.21-1.24,16.84,3.73,19.87,3.03,1.39,6.59,2.2,10.32,2.2,4.07,0,7.93-.96,11.33-2.68l-.15.07c9.84-3.58,18.17-9.26,24.79-16.53l.05-.05.08.12ZM248.86,308.72c2.76-7.18,5.8-15.73,9.11-25.67,4.42-13.25,5.93-20.97,4.55-23.17-1.38-2.2-4-2.47-7.87-.83-4.6,2.24-8.46,5.3-11.54,9.06l-.05.07c-3.44,4.36-6.72,9.23-9.64,14.34l-.3.56c-3.35,5.48-6.18,11.79-8.15,18.48l-.15.56c-3.2,8.66-5.05,18.68-5.05,29.12,0,1.41.03,2.8.1,4.19v-.2c.55,11.03,2.32,16.97,5.3,17.8s6.43-3.16,10.35-12.01c3.79-6.84,7.17-14.79,9.69-23.12l.23-.89c1.65-3.91,2.77-6.67,3.38-8.3h.03ZM340.71,352.61c11.48-5.15,19.56-16,20.69-28.83l.02-.13v-.83l-9.11,11.59-16.55,18.22c-.25.2-.41.5-.41.83s.17.63.4.83c.53.54,2.19-.01,4.97-1.66v-.02ZM411.91,336.88c12.52-3.58,21.53-14.92,21.53-28.35v-.65.03c-.17-3.31-.76-6.43-1.74-9.37l.07.25c-6.44,5.73-11.73,12.59-15.55,20.32l-.18.38c-4.98,9.93-6.37,15.71-4.17,17.36l.05.03Z" fill="#000" stroke-width="0"/></svg>