<?xml version="1.0" encoding="UTF-8"?><svg id="a" xmlns="http://www.w3.org/2000/svg" viewBox="0 0 604.05 471"><path d="M301.87,55.06c-80.51,0-130.8,40-150.93,120.02,30.19-40,65.41-55,105.65-45.01,22.97,5.71,39.39,22.28,57.54,40.6,29.61,29.85,63.88,64.42,138.68,64.42,80.51,0,130.8-40,150.93-120.02-30.19,40-65.38,55-105.65,45.01-22.97-5.71-39.39-22.28-57.57-40.6-29.58-29.88-63.81-64.42-138.65-64.42h0ZM150.93,235.1c-80.51,0-130.8,40-150.93,120.02,30.19-40.03,65.41-55,105.65-45.01,22.97,5.71,39.39,22.28,57.57,40.6,29.58,29.85,63.85,64.42,138.68,64.42,80.51,0,130.8-40,150.93-120.02-30.19,40-65.41,55-105.65,45.01-22.97-5.71-39.39-22.28-57.54-40.6-29.64-29.85-63.91-64.42-138.71-64.42Z" fill="#000" fill-rule="evenodd" stroke-width="0"/></svg>