<?xml version="1.0" encoding="UTF-8"?><svg id="a" xmlns="http://www.w3.org/2000/svg" viewBox="0 0 604.05 471"><path d="M122.74,235.5v179h358V56.5H122.74v179ZM411.22,221.22c9.1,2.27,16.02,6.35,22.43,12.93,3.27,3.49,8.16,9.9,8.57,11.48.11.47-15.44,10.9-24.88,16.73-.35.23-1.75-1.22-3.27-3.5-4.6-6.7-9.44-9.61-16.84-10.14-10.84-.7-17.83,4.96-17.78,14.45-.06,2.33.47,4.67,1.51,6.7,2.39,4.96,6.88,7.92,20.74,13.93,25.64,11.01,36.59,18.29,43.41,28.61,7.63,11.53,9.32,29.95,4.2,43.7-5.71,14.86-19.81,24.99-39.63,28.32-6.12,1.11-20.69.93-27.28-.29-14.39-2.56-28.02-9.68-36.42-19-3.32-3.61-9.73-13.11-9.32-13.75.18-.23,1.63-1.16,3.27-2.1s7.63-4.43,13.29-7.7l10.31-6,2.16,3.2c3.03,4.6,9.61,10.9,13.58,12.99,11.42,6.06,27.1,5.19,34.85-1.75,3.14-2.62,4.9-6.65,4.67-10.72,0-4.14-.53-6-2.68-9.1-2.8-3.96-8.45-7.34-24.59-14.33-18.47-7.99-26.46-12.88-33.67-20.74-4.54-5.19-7.92-11.3-9.84-17.89-1.34-5.07-1.69-17.78-.64-22.84,3.79-17.89,17.31-30.3,36.71-33.97,6.3-1.22,20.98-.76,27.15.76h-.01ZM327.2,236.2l.11,14.62h-46.62v132.45h-32.98v-132.45h-46.55v-14.33c0-7.99.18-14.62.4-14.8.18-.23,28.49-.35,62.87-.29l62.58.18.18,14.62Z" fill="#000" stroke-width="0"/></svg>